<?xml version="1.0" ?>
<svg xmlns="http://www.w3.org/2000/svg" width="338" height="338">
<path style="fill:#40356f; stroke:none;" d="M0 0L0 338L338 338L338 0L0 0z"/>
<path style="fill:#5952b1; stroke:none;" d="M73 85C75.5991 78.806 74 69.6859 74 63L74 14L260 14L260 85C262.189 79.7835 261 72.6192 261 67L261 31C261 27.0624 262.829 16.7464 259.397 14.0278C257.311 12.3756 253.469 13.0011 251 13L229 13L146 13L94 13C89.2946 13 78.4387 10.9902 74.6034 14.0278C71.0612 16.8332 73 27.9131 73 32L73 85z"/>
<path style="fill:#645fce; stroke:none;" d="M74 14L74 85L131 85L131 142L203 142L203 85L260 85L260 14L74 14z"/>
<path style="fill:#5952b1; stroke:none;" d="M87 70C88.7687 65.7849 88 60.5355 88 56L88 28L131 28C127.301 26.448 122.983 27 119 27L99 27C96.0196 27 90.1473 25.9272 88.0278 28.6034C85.9542 31.2214 87 36.8785 87 40L87 70M145 27C149.469 28.8752 155.191 28 160 28L189 28C184.531 26.1248 178.809 27 174 27L145 27M203 27C207.215 28.7687 212.465 28 217 28L246 28L246 71C247.552 67.3014 247 62.9828 247 59L247 39C247 36.0196 248.073 30.1474 245.397 28.0278C242.779 25.9543 237.122 27 234 27L203 27z"/>
<path style="fill:#40356f; stroke:none;" d="M88 28L88 70L131 70L131 28L88 28z"/>
<path style="fill:#484988; stroke:none;" d="M145 28L145 58C145 61.1215 143.954 66.7786 146.028 69.3966C147.891 71.7495 152.383 70.9988 155 71L179 71C181.876 70.9987 186.842 71.8414 188.397 68.6821C190.048 65.3257 189 59.6519 189 56L189 28C187.231 32.2151 188 37.4645 188 42L188 70L146 70L146 42C146 37.4644 146.769 32.2152 145 28z"/>
<path style="fill:#40356f; stroke:none;" d="M146 28L146 70L188 70L188 28L146 28M203 28L203 70L246 70L246 28L203 28z"/>
<path style="fill:#484988; stroke:none;" d="M88 70C92.2151 71.7687 97.4645 71 102 71L131 71C126.785 69.2313 121.536 70 117 70L88 70M203 70C207.215 71.7687 212.465 71 217 71L246 71C241.785 69.2313 236.536 70 232 70L203 70M74 85C79.2165 87.1889 86.3809 86 92 86L131 86C125.784 83.8111 118.619 85 113 85L74 85M145 128C146.769 123.785 146 118.536 146 114L146 86L188 86L188 128C191.507 119.643 189 106.06 189 97C189 94.0896 189.912 89.0522 187.972 86.6034C186.109 84.2505 181.617 85.0012 179 85L155 85C152.383 85.0012 147.891 84.2505 146.028 86.6034C143.954 89.2214 145 94.8785 145 98L145 128M203 85C208.217 87.1889 215.381 86 221 86L260 86C254.784 83.8111 247.619 85 242 85L203 85z"/>
<path style="fill:#40356f; stroke:none;" d="M146 86L146 128L188 128L188 86L146 86z"/>
<path style="fill:#5952b1; stroke:none;" d="M16 128C22.194 130.599 31.3141 129 38 129L87 129L87 186C88.7687 181.785 88 176.535 88 172L88 143C88 139.524 89.4781 131.468 86.3966 129.028C82.5613 125.99 71.7054 128 67 128L16 128M145 128C149.469 129.875 155.191 129 160 129L189 129C184.531 127.125 178.809 128 174 128L145 128M246 186C248.189 180.783 247 173.619 247 168L247 129L318 129C312.784 126.811 305.619 128 300 128L264 128C260.062 128 249.746 126.171 247.028 129.603C244.456 132.85 246 141.071 246 145L246 186z"/>
<path style="fill:#484988; stroke:none;" d="M15 129L15 315C16.9806 310.28 16 304.08 16 299L16 268L16 171L16 143C16 138.464 16.7687 133.215 15 129z"/>
<path style="fill:#645fce; stroke:none;" d="M16 129L16 315L318 315L318 129L247 129L247 186L189 186L189 226C189 230.285 190.452 237.966 187.972 241.682C186.081 244.516 181.946 243.994 179 244L155 244C152.054 243.994 147.919 244.516 146.028 241.682C143.548 237.966 145 230.285 145 226L145 186L87 186L87 129L16 129z"/>
<path style="fill:#484988; stroke:none;" d="M318 129L318 315C319.769 310.785 319 305.535 319 301L319 273L319 176L319 145C319 139.92 319.981 133.72 318 129z"/>
<path style="fill:#5952b1; stroke:none;" d="M30 142C34.2152 143.769 39.4645 143 44 143L73 143L73 186C74.552 182.301 74 177.983 74 174L74 154C74 151.02 75.0728 145.147 72.3966 143.028C69.7786 140.954 64.1215 142 61 142L30 142M131 142C137.436 144.701 147.049 143 154 143L203 143C196.564 140.299 186.951 142 180 142L131 142M260 186C261.769 181.785 261 176.536 261 172L261 143L303 143C299.301 141.448 294.983 142 291 142L271 142C268.197 142 263.025 141.082 261.028 143.603C258.954 146.221 260 151.878 260 155L260 186z"/>
<path style="fill:#484988; stroke:none;" d="M30 143L30 186C31.552 182.301 31 177.983 31 174C31 164.94 33.5069 151.357 30 143z"/>
<path style="fill:#40356f; stroke:none;" d="M31 143L31 186L73 186L73 143L31 143M261 143L261 186L303 186L303 143L261 143z"/>
<path style="fill:#484988; stroke:none;" d="M303 143L303 186C306.507 177.642 304 164.06 304 155C304 151.017 304.552 146.699 303 143M145 186L145 243C146.769 238.785 146 233.536 146 229L146 201C146 196.191 146.875 190.469 145 186M188 186L188 243C189.769 238.785 189 233.536 189 229L189 201C189 196.191 189.875 190.469 188 186M73 244C68.7849 242.231 63.5355 243 59 243L31 243L31 201L73 201C64.6425 197.493 51.0596 200 42 200C39.0896 200 34.0522 199.088 31.6034 201.028C29.2505 202.891 30.0012 207.383 30 210L30 234C30.0012 236.617 29.2505 241.109 31.6034 242.972C34.2214 245.046 39.8785 244 43 244L73 244z"/>
<path style="fill:#5952b1; stroke:none;" d="M73 200L73 244C74.552 240.301 74 235.983 74 232L74 212C74 208.017 74.552 203.699 73 200z"/>
<path style="fill:#484988; stroke:none;" d="M88 200C92.2151 201.769 97.4645 201 102 201L131 201C126.785 199.231 121.536 200 117 200L88 200M203 200C207.215 201.769 212.465 201 217 201L246 201C241.785 199.231 236.536 200 232 200L203 200z"/>
<path style="fill:#5952b1; stroke:none;" d="M260 200L260 244C261.552 240.301 261 235.983 261 232L261 212C261 208.017 261.552 203.699 260 200z"/>
<path style="fill:#484988; stroke:none;" d="M261 200C265.215 201.769 270.464 201 275 201L303 201L303 243L261 243C269.357 246.507 282.94 244 292 244C294.91 244 299.948 244.912 302.397 242.972C304.75 241.109 303.999 236.617 304 234L304 210C303.999 207.383 304.75 202.891 302.397 201.028C299.779 198.954 294.122 200 291 200L261 200z"/>
<path style="fill:#40356f; stroke:none;" d="M31 201L31 243L73 243L73 201L31 201z"/>
<path style="fill:#5952b1; stroke:none;" d="M87 201L87 243C90.4066 234.882 88 221.797 88 213C88 209.017 88.552 204.699 87 201z"/>
<path style="fill:#40356f; stroke:none;" d="M88 201L88 243L131 243L131 201L88 201M203 201L203 243L246 243L246 201L203 201z"/>
<path style="fill:#5952b1; stroke:none;" d="M246 201L246 243C249.407 234.882 247 221.797 247 213C247 209.017 247.552 204.699 246 201z"/>
<path style="fill:#40356f; stroke:none;" d="M261 201L261 243L303 243L303 201L261 201z"/>
<path style="fill:#484988; stroke:none;" d="M88 243C92.2151 244.769 97.4645 244 102 244L131 244C126.785 242.231 121.536 243 117 243L88 243M146 243C150.215 244.769 155.465 244 160 244L188 244C183.785 242.231 178.536 243 174 243L146 243M203 243C207.215 244.769 212.465 244 217 244L246 244C241.785 242.231 236.536 243 232 243L203 243M30 258L30 301C33.5069 292.643 31 279.06 31 270C31 266.017 31.552 261.699 30 258z"/>
<path style="fill:#40356f; stroke:none;" d="M31 258L31 301L73 301L73 258L31 258z"/>
<path style="fill:#5952b1; stroke:none;" d="M73 258L73 301C76.5069 292.643 74 279.06 74 270C74 266.017 74.552 261.699 73 258M87 258L87 290C87 292.98 85.9272 298.853 88.6034 300.972C91.2214 303.046 96.8785 302 100 302L131 302C126.785 300.231 121.536 301 117 301L88 301L88 272C88 267.465 88.7687 262.215 87 258z"/>
<path style="fill:#40356f; stroke:none;" d="M88 258L88 301L131 301L131 258L88 258z"/>
<path style="fill:#484988; stroke:none;" d="M145 258L145 301C148.507 292.643 146 279.06 146 270C146 266.017 146.552 261.699 145 258z"/>
<path style="fill:#40356f; stroke:none;" d="M146 258L146 301L188 301L188 258L146 258z"/>
<path style="fill:#484988; stroke:none;" d="M188 258L188 301C189.552 297.301 189 292.983 189 289C189 279.94 191.507 266.357 188 258z"/>
<path style="fill:#40356f; stroke:none;" d="M203 258L203 301L246 301L246 258L203 258z"/>
<path style="fill:#5952b1; stroke:none;" d="M246 258L246 301C249.507 292.643 247 279.06 247 270C247 266.017 247.552 261.699 246 258M260 258L260 290C260 292.98 258.927 298.853 261.603 300.972C264.221 303.046 269.878 302 273 302L304 302C299.785 300.231 294.536 301 290 301L261 301L261 272C261 267.465 261.769 262.215 260 258z"/>
<path style="fill:#40356f; stroke:none;" d="M261 258L261 301L303 301L303 258L261 258z"/>
<path style="fill:#484988; stroke:none;" d="M303 258L303 301C304.552 297.301 304 292.983 304 289C304 279.94 306.507 266.357 303 258z"/>
<path style="fill:#5952b1; stroke:none;" d="M31 301C35.2151 302.769 40.4645 302 45 302L73 302C68.7849 300.231 63.5355 301 59 301L31 301M146 301C150.215 302.769 155.465 302 160 302L188 302C183.785 300.231 178.536 301 174 301L146 301M203 301C207.215 302.769 212.465 302 217 302L246 302C241.785 300.231 236.536 301 232 301L203 301M16 315C23.3995 318.105 34.9926 316 43 316L105 316L318 316C310.601 312.895 299.007 315 291 315L229 315L16 315z"/>
</svg>
